<svg xmlns="http://www.w3.org/2000/svg" viewBox="0 0 512 512">
  <defs>
    <linearGradient id="clawGradient" x1="0%" y1="0%" x2="100%" y2="100%">
      <stop offset="0%" style="stop-color:#ff4d4d"/>
      <stop offset="100%" style="stop-color:#00e5cc"/>
    </linearGradient>
  </defs>
  <!-- Background circle -->
  <circle cx="256" cy="256" r="240" fill="#050810"/>
  <!-- Claw shape -->
  <g fill="url(#clawGradient)">
    <!-- Left pincer -->
    <path d="M120 180 Q80 140 100 100 Q120 80 150 90 Q180 100 190 140 Q200 180 180 220 Q160 260 140 280 L160 300 Q200 260 220 200 Q240 140 210 80 Q180 20 120 40 Q60 60 50 130 Q40 200 80 260 L120 180Z"/>
    <!-- Right pincer -->
    <path d="M392 180 Q432 140 412 100 Q392 80 362 90 Q332 100 322 140 Q312 180 332 220 Q352 260 372 280 L352 300 Q312 260 292 200 Q272 140 302 80 Q332 20 392 40 Q452 60 462 130 Q472 200 432 260 L392 180Z"/>
    <!-- Body/connection -->
    <ellipse cx="256" cy="340" rx="100" ry="80"/>
    <!-- Shield accent -->
    <path d="M256 260 L306 290 L306 360 Q306 400 256 420 Q206 400 206 360 L206 290 Z" fill="#050810" opacity="0.3"/>
  </g>
</svg>
